<?xml version="1.0" encoding="utf-8"?>
<?xml-stylesheet type="text/xsl" href="rss1.xsl"?>
<rss version="2.0" xmlns:atom="http://www.w3.org/2005/Atom" xmlns:content="http://purl.org/rss/1.0/modules/content/" xmlns:dc="http://purl.org/dc/elements/1.1/" xmlns:media="http://search.yahoo.com/mrss/">
<channel>
 <title>Getty</title>
 <link>http://www.gettyimg.com/</link>
 <atom:link href="http://www.gettyimg.com/" rel="self" type="application/rss+xml" />

 
                <item>
                <title><![CDATA[【MASTER &amp; MASTER RIP】MASTER - Alicia Keys feat. Lucky Daye - Stay |Master 4K|]]></title>
                <link><![CDATA[https://sharemania.us/threads/alicia-keys-feat-lucky-daye-stay-master-4k.227761/]]></link>
                <description><![CDATA[<article>
<blockquote class="messageText SelectQuoteContainer ugc baseHtml">
<div style="text-align: center"><img src="https://i.imgur.com/y0SCdxr.gif" class="bbCodeImage LbImage" alt="[​IMG]" data-url="https://i.imgur.com/y0SCdxr.gif" style=""><br>
<br>
​</div>
<div class="ToggleTriggerAnchor bbCodeSpoilerContainer">
<button type="button" class="button bbCodeSpoilerButton ToggleTrigger Tooltip JsOnly" data-target="> .SpoilerTarget"><span>Spoiler: <span class="SpoilerTitle">MASTER</span></span></button>
<div class="SpoilerTarget bbCodeSpoilerText">
<div class="bbCodeBlock bbCodeCode">
<div class="type">Code:</div>
<pre>Format                                   : MPEG-4
Format profile                           : Base Media / Version 2
Codec ID                                 : mp42 (mp42/mp41)
File size                                : 1.06 GiB
Duration                                 : 3 min 36 s
Overall bit rate mode                    : Variable
Overall bit rate                         : 41.9 Mb/s
Encoded date                             : UTC 2022-09-21 22:43:19
Tagged date                              : UTC 2022-09-21 22:43:39
TIM                                      : 00:00:00:00
TSC                                      : 25
TSZ                                      : 1

Video
ID                                       : 1
Format                                   : AVC
Format/Info                              : Advanced Video Codec
Format profile                           : High@L5.2
Format settings                          : CABAC / 4 Ref Frames
Format settings, CABAC                   : Yes
Format settings, Reference frames        : 4 frames
Format settings, GOP                     : M=1, N=15
Codec ID                                 : avc1
Codec ID/Info                            : Advanced Video Coding
Duration                                 : 3 min 36 s
Bit rate                                 : 41.6 Mb/s
Width                                    : 3 840 pixels
Height                                   : 2 160 pixels
Display aspect ratio                     : 16:9
Frame rate mode                          : Constant
Frame rate                               : 25.000 FPS
Standard                                 : Component
Color space                              : YUV
Chroma subsampling                       : 4:2:0
Bit depth                                : 8 bits
Scan type                                : Progressive
Bits/(Pixel*Frame)                       : 0.201
Stream size                              : 1.05 GiB (99%)
Language                                 : English
Encoded date                             : UTC 2022-09-21 22:43:19
Tagged date                              : UTC 2022-09-21 22:43:19
Color range                              : Limited
Codec configuration box                  : avcC

Audio
ID                                       : 2
Format                                   : AAC LC
Format/Info                              : Advanced Audio Codec Low Complexity
Codec ID                                 : mp4a-40-2
Duration                                 : 3 min 36 s
Source duration                          : 3 min 36 s
Bit rate mode                            : Variable
Bit rate                                 : 317 kb/s
Maximum bit rate                         : 393 kb/s
Channel(s)                               : 2 channels
Channel layout                           : L R
Sampling rate                            : 48.0 kHz
Frame rate                               : 46.875 FPS (1024 SPF)
Compression mode                         : Lossy
Stream size                              : 8.20 MiB (1%)
Source stream size                       : 8.21 MiB (1%)
Language                                 : English
Encoded date                             : UTC 2022-09-21 22:43:19
Tagged date                              : UTC 2022-09-21 22:43:19</pre>
</div><div style="text-align: center">​</div></div>
</div><div style="text-align: center"><br>
<br>
<br>
<div class="bbCodeBlock bbCodeVfcHH HiddenContent">
<div class="attribution type">Hidden Content:</div>
<blockquote>You must reply before you can see the hidden data contained here.</blockquote>
</div></div>
<div class="messageTextEndMarker">&nbsp;</div>
</blockquote>
</article>]]></description>
                <author><![CDATA[fstambuk]]></author>
                </item>

                
                <item>
                <title><![CDATA[【Requests】[REQ AUD] - The Screaming Jets - All for One]]></title>
                <link><![CDATA[https://sharemania.us/threads/the-screaming-jets-all-for-one.227762/]]></link>
                <description><![CDATA[<article>
<blockquote class="messageText SelectQuoteContainer ugc baseHtml">
Hello everybody !<br>
<br>
I'm looking for this album :<br>
<br>
<a href="https://fr.7digital.com/artist/the-screaming-jets/release/all-for-one-30-year-anniversary-edition-explicit-15763608" target="_blank" class="externalLink" rel="nofollow">https://fr.7digital.com/artist/the-...30-year-anniversary-edition-explicit-15763608</a><br>
<br>
Could someone get it for me in Flac version?<br>
<br>
Thanks very much !
<div class="messageTextEndMarker">&nbsp;</div>
</blockquote>
</article>]]></description>
                <author><![CDATA[jujuduch]]></author>
                </item>

                </channel></rss>